<?xml version="1.0" encoding="UTF-8"?>
<svg xmlns="http://www.w3.org/2000/svg" viewBox="0 0 1024 1024" width="1024" height="1024"><defs><linearGradient id="tg" gradientUnits="userSpaceOnUse" x1="512.00" y1="96.26" x2="512.00" y2="927.74"><stop offset="0" stop-color="#322823"/><stop offset="1" stop-color="#221b16"/></linearGradient><linearGradient id="rg" gradientUnits="userSpaceOnUse" x1="14" y1="50" x2="86" y2="50"><stop offset="0.000" stop-color="#4fe3a6"/><stop offset="0.250" stop-color="#3fd2dc"/><stop offset="0.500" stop-color="#4f9cff"/><stop offset="0.750" stop-color="#8a6bff"/><stop offset="1.000" stop-color="#a45cff"/></linearGradient><filter id="glow" x="-30%" y="-30%" width="160%" height="160%"><feGaussianBlur stdDeviation="1.1" result="b"/><feMerge><feMergeNode in="b"/><feMergeNode in="SourceGraphic"/></feMerge></filter></defs><rect x="96.26" y="96.26" width="831.49" height="831.49" rx="195.40" fill="url(#tg)"/><g transform="translate(512.00,512.00) scale(7.6) translate(-50,-50)"><g filter="url(#glow)"><rect x="10.70" y="45.15" width="4.20" height="4.20" rx="1.10" fill="url(#rg)"/><rect x="10.70" y="50.65" width="4.20" height="4.20" rx="1.10" fill="url(#rg)"/><rect x="16.90" y="45.15" width="4.20" height="4.20" rx="1.10" fill="url(#rg)"/><rect x="16.90" y="50.65" width="4.20" height="4.20" rx="1.10" fill="url(#rg)"/><rect x="16.90" y="39.65" width="4.20" height="4.20" rx="1.10" fill="url(#rg)"/><rect x="16.90" y="56.15" width="4.20" height="4.20" rx="1.10" fill="url(#rg)"/><rect x="23.10" y="45.15" width="4.20" height="4.20" rx="1.10" fill="url(#rg)"/><rect x="23.10" y="50.65" width="4.20" height="4.20" rx="1.10" fill="url(#rg)"/><rect x="23.10" y="39.65" width="4.20" height="4.20" rx="1.10" fill="url(#rg)"/><rect x="23.10" y="56.15" width="4.20" height="4.20" rx="1.10" fill="url(#rg)"/><rect x="23.10" y="34.15" width="4.20" height="4.20" rx="1.10" fill="url(#rg)"/><rect x="23.10" y="61.65" width="4.20" height="4.20" rx="1.10" fill="url(#rg)"/><rect x="23.10" y="28.65" width="4.20" height="4.20" rx="1.10" fill="url(#rg)"/><rect x="23.10" y="67.15" width="4.20" height="4.20" rx="1.10" fill="url(#rg)"/><rect x="29.30" y="45.15" width="4.20" height="4.20" rx="1.10" fill="url(#rg)"/><rect x="29.30" y="50.65" width="4.20" height="4.20" rx="1.10" fill="url(#rg)"/><rect x="29.30" y="39.65" width="4.20" height="4.20" rx="1.10" fill="url(#rg)"/><rect x="29.30" y="56.15" width="4.20" height="4.20" rx="1.10" fill="url(#rg)"/><rect x="29.30" y="34.15" width="4.20" height="4.20" rx="1.10" fill="url(#rg)"/><rect x="29.30" y="61.65" width="4.20" height="4.20" rx="1.10" fill="url(#rg)"/><rect x="35.50" y="45.15" width="4.20" height="4.20" rx="1.10" fill="url(#rg)"/><rect x="35.50" y="50.65" width="4.20" height="4.20" rx="1.10" fill="url(#rg)"/><rect x="35.50" y="39.65" width="4.20" height="4.20" rx="1.10" fill="url(#rg)"/><rect x="35.50" y="56.15" width="4.20" height="4.20" rx="1.10" fill="url(#rg)"/><rect x="35.50" y="34.15" width="4.20" height="4.20" rx="1.10" fill="url(#rg)"/><rect x="35.50" y="61.65" width="4.20" height="4.20" rx="1.10" fill="url(#rg)"/><rect x="35.50" y="28.65" width="4.20" height="4.20" rx="1.10" fill="url(#rg)"/><rect x="35.50" y="67.15" width="4.20" height="4.20" rx="1.10" fill="url(#rg)"/><rect x="35.50" y="23.15" width="4.20" height="4.20" rx="1.10" fill="url(#rg)"/><rect x="35.50" y="72.65" width="4.20" height="4.20" rx="1.10" fill="url(#rg)"/><rect x="41.70" y="45.15" width="4.20" height="4.20" rx="1.10" fill="url(#rg)"/><rect x="41.70" y="50.65" width="4.20" height="4.20" rx="1.10" fill="url(#rg)"/><rect x="41.70" y="39.65" width="4.20" height="4.20" rx="1.10" fill="url(#rg)"/><rect x="41.70" y="56.15" width="4.20" height="4.20" rx="1.10" fill="url(#rg)"/><rect x="47.90" y="45.15" width="4.20" height="4.20" rx="1.10" fill="url(#rg)"/><rect x="47.90" y="50.65" width="4.20" height="4.20" rx="1.10" fill="url(#rg)"/><rect x="47.90" y="39.65" width="4.20" height="4.20" rx="1.10" fill="url(#rg)"/><rect x="47.90" y="56.15" width="4.20" height="4.20" rx="1.10" fill="url(#rg)"/><rect x="47.90" y="34.15" width="4.20" height="4.20" rx="1.10" fill="url(#rg)"/><rect x="47.90" y="61.65" width="4.20" height="4.20" rx="1.10" fill="url(#rg)"/><rect x="47.90" y="28.65" width="4.20" height="4.20" rx="1.10" fill="url(#rg)"/><rect x="47.90" y="67.15" width="4.20" height="4.20" rx="1.10" fill="url(#rg)"/><rect x="54.10" y="45.15" width="4.20" height="4.20" rx="1.10" fill="url(#rg)"/><rect x="54.10" y="50.65" width="4.20" height="4.20" rx="1.10" fill="url(#rg)"/><rect x="54.10" y="39.65" width="4.20" height="4.20" rx="1.10" fill="url(#rg)"/><rect x="54.10" y="56.15" width="4.20" height="4.20" rx="1.10" fill="url(#rg)"/><rect x="54.10" y="34.15" width="4.20" height="4.20" rx="1.10" fill="url(#rg)"/><rect x="54.10" y="61.65" width="4.20" height="4.20" rx="1.10" fill="url(#rg)"/><rect x="54.10" y="28.65" width="4.20" height="4.20" rx="1.10" fill="url(#rg)"/><rect x="54.10" y="67.15" width="4.20" height="4.20" rx="1.10" fill="url(#rg)"/><rect x="54.10" y="23.15" width="4.20" height="4.20" rx="1.10" fill="url(#rg)"/><rect x="54.10" y="72.65" width="4.20" height="4.20" rx="1.10" fill="url(#rg)"/><rect x="60.30" y="45.15" width="4.20" height="4.20" rx="1.10" fill="url(#rg)"/><rect x="60.30" y="50.65" width="4.20" height="4.20" rx="1.10" fill="url(#rg)"/><rect x="60.30" y="39.65" width="4.20" height="4.20" rx="1.10" fill="url(#rg)"/><rect x="60.30" y="56.15" width="4.20" height="4.20" rx="1.10" fill="url(#rg)"/><rect x="60.30" y="34.15" width="4.20" height="4.20" rx="1.10" fill="url(#rg)"/><rect x="60.30" y="61.65" width="4.20" height="4.20" rx="1.10" fill="url(#rg)"/><rect x="66.50" y="45.15" width="4.20" height="4.20" rx="1.10" fill="url(#rg)"/><rect x="66.50" y="50.65" width="4.20" height="4.20" rx="1.10" fill="url(#rg)"/><rect x="66.50" y="39.65" width="4.20" height="4.20" rx="1.10" fill="url(#rg)"/><rect x="66.50" y="56.15" width="4.20" height="4.20" rx="1.10" fill="url(#rg)"/><rect x="66.50" y="34.15" width="4.20" height="4.20" rx="1.10" fill="url(#rg)"/><rect x="66.50" y="61.65" width="4.20" height="4.20" rx="1.10" fill="url(#rg)"/><rect x="66.50" y="28.65" width="4.20" height="4.20" rx="1.10" fill="url(#rg)"/><rect x="66.50" y="67.15" width="4.20" height="4.20" rx="1.10" fill="url(#rg)"/><rect x="72.70" y="45.15" width="4.20" height="4.20" rx="1.10" fill="url(#rg)"/><rect x="72.70" y="50.65" width="4.20" height="4.20" rx="1.10" fill="url(#rg)"/><rect x="72.70" y="39.65" width="4.20" height="4.20" rx="1.10" fill="url(#rg)"/><rect x="72.70" y="56.15" width="4.20" height="4.20" rx="1.10" fill="url(#rg)"/><rect x="78.90" y="45.15" width="4.20" height="4.20" rx="1.10" fill="url(#rg)"/><rect x="78.90" y="50.65" width="4.20" height="4.20" rx="1.10" fill="url(#rg)"/><rect x="78.90" y="39.65" width="4.20" height="4.20" rx="1.10" fill="url(#rg)"/><rect x="78.90" y="56.15" width="4.20" height="4.20" rx="1.10" fill="url(#rg)"/><rect x="78.90" y="34.15" width="4.20" height="4.20" rx="1.10" fill="url(#rg)"/><rect x="78.90" y="61.65" width="4.20" height="4.20" rx="1.10" fill="url(#rg)"/><rect x="85.10" y="45.15" width="4.20" height="4.20" rx="1.10" fill="url(#rg)"/><rect x="85.10" y="50.65" width="4.20" height="4.20" rx="1.10" fill="url(#rg)"/></g><g filter="url(#glow)"><rect x="61.20" y="20" width="2.4" height="60" rx="1.2" fill="#5f8c6a"/><rect x="60.00" y="15.4" width="4.8" height="4.8" rx="1.3" fill="#5f8c6a"/></g></g></svg>
